<?xml version="1.0" encoding="utf-8"?>
<!-- Generator: Adobe Illustrator 27.5.0, SVG Export Plug-In . SVG Version: 6.00 Build 0)  -->
<svg version="1.1" id="Layer_1" xmlns="http://www.w3.org/2000/svg" xmlns:xlink="http://www.w3.org/1999/xlink" x="0px" y="0px"
	 viewBox="0 0 512 512" style="enable-background:new 0 0 512 512;" xml:space="preserve">
<g>
	<path d="M256,512c141.38,0,256-114.62,256-256S397.38,0,256,0S0,114.62,0,256S114.62,512,256,512z M224,208c0,26.5-14.34,48-32,48
		s-32-21.5-32-48s14.34-48,32-48S224,181.5,224,208z M137.12,306.14c7.65-4.42,17.44-1.8,21.86,5.86c20,34.67,57,56.02,97.02,56
		c40.03,0.02,77.02-21.33,97.02-56c4.37-7.68,14.14-10.37,21.82-6c7.68,4.37,10.37,14.14,6,21.82l-0.11,0.18
		c-25.72,44.57-73.28,72.02-124.74,72c-51.46,0.02-99.02-27.43-124.74-72C126.85,320.35,129.47,310.56,137.12,306.14z M320,256
		c-17.66,0-32-21.5-32-48s14.34-48,32-48s32,21.5,32,48S337.66,256,320,256z"/>
</g>
</svg>
