<?xml version="1.0" encoding="utf-8"?>
<!-- Generator: Adobe Illustrator 27.5.0, SVG Export Plug-In . SVG Version: 6.00 Build 0)  -->
<svg version="1.1" id="Layer_1" xmlns="http://www.w3.org/2000/svg" xmlns:xlink="http://www.w3.org/1999/xlink" x="0px" y="0px"
	 viewBox="0 0 512 512" style="enable-background:new 0 0 512 512;" xml:space="preserve">
<g>
	<path d="M345.28,413.18l-51.65-51.68c-58.25,20.82-122.34-9.51-143.17-67.76c-8.72-24.38-8.72-51.03,0-75.41l-65.92-65.92
		C30.02,200.9,0,256,0,256s96,176,256,176C286.73,431.89,317.12,425.49,345.28,413.18z M166.72,98.82
		C194.88,86.51,225.27,80.11,256,80c160,0,256,176,256,176s-30.05,55.07-84.51,103.62l-65.98-65.98
		c20.82-58.25-9.51-122.34-67.76-143.17c-24.38-8.72-51.03-8.72-75.41,0l-51.62-51.62V98.82z"/>
	<path d="M176.8,244.67c-6.26,43.74,24.12,84.27,67.86,90.53c7.52,1.08,15.15,1.08,22.67,0l-90.56-90.53H176.8z M335.2,267.33
		l-90.53-90.56c43.74-6.26,84.27,24.12,90.53,67.86c1.08,7.52,1.08,15.15,0,22.67V267.33z M436.67,459.33l-384-384l22.66-22.66
		l384,384L436.67,459.33z"/>
</g>
</svg>
