<?xml version="1.0" encoding="utf-8"?>
<!-- Generator: Adobe Illustrator 19.0.0, SVG Export Plug-In . SVG Version: 6.00 Build 0)  -->
<svg version="1.1" id="Layer_1" xmlns="http://www.w3.org/2000/svg" xmlns:xlink="http://www.w3.org/1999/xlink" x="0px" y="0px"
	 viewBox="0 0 512 512" style="enable-background:new 0 0 512 512;" xml:space="preserve">
<g id="XMLID_1_">
	<path id="XMLID_6_" d="M402.4,170.7h-24.2v-48.5C378.2,55,323.1,0,256,0S133.8,55,133.8,122.2v48.5h-24.2
		c-27,0-48.5,22.4-48.5,48.5v244.3c0,27,22.4,48.5,48.5,48.5h292.8c27,0,48.5-22.4,48.5-48.5V220.1
		C451.8,193,429.5,170.7,402.4,170.7z M256,393.6c-27,0-48.5-22.4-48.5-48.5c0-27,22.4-48.5,48.5-48.5s48.5,22.4,48.5,48.5
		C304.5,371.2,283,393.6,256,393.6z M331.5,170.7H180.4v-48.5c0-42,34.5-75.5,75.5-75.5c42,0,75.5,34.5,75.5,75.5V170.7z"/>
</g>
</svg>
